<svg width="26" height="24" viewBox="0 0 26 24" fill="none" xmlns="http://www.w3.org/2000/svg">
<g clip-path="url(#clip0)">
<path d="M0 7.26582C0.0832757 6.69926 0.146724 6.12948 0.252573 5.56704C0.852585 2.38135 3.19376 0.213873 6.54126 0.102796C10.5717 -0.0306144 14.6144 -0.0376669 18.6443 0.102208C22.2877 0.228566 24.9263 2.82742 25.0401 6.33841C25.1612 10.0666 25.1612 13.8038 25.0401 17.532C24.9263 21.0429 22.2886 23.6415 18.6446 23.7682C14.6147 23.9083 10.5711 23.9118 6.54157 23.7661C2.89757 23.6342 0.378554 21.0294 0.134827 17.5131C0.11378 17.209 0.0460609 16.9075 0 16.6048C0 13.4917 0 10.3786 0 7.26582ZM12.5688 21.6874C14.4131 21.6874 16.2592 21.7406 18.101 21.675C20.9888 21.5719 22.7651 19.9116 22.8325 17.1323C22.9161 13.6692 22.9161 10.2014 22.8325 6.73805C22.7651 3.95936 20.9876 2.26028 18.101 2.20122C14.4372 2.12658 10.7694 2.12717 7.10559 2.20122C4.24096 2.25911 2.45953 3.9238 2.38175 6.67194C2.28291 10.1788 2.28291 13.6918 2.38175 17.1987C2.45953 19.9466 4.24096 21.5728 7.10589 21.675C8.92453 21.7403 10.7478 21.6874 12.5688 21.6874Z" fill="#FB638C"/>
<path d="M12.5642 5.76953C9.02753 5.76953 6.16016 8.53148 6.16016 11.9384C6.16016 15.3457 9.02753 18.1076 12.5642 18.1076C16.1011 18.1076 18.9681 15.3457 18.9681 11.9384C18.9681 8.53148 16.1011 5.76953 12.5642 5.76953ZM12.5642 15.9837C10.2449 15.9837 8.36498 14.1726 8.36498 11.9384C8.36498 9.70426 10.2449 7.89323 12.5642 7.89323C14.8834 7.89323 16.7633 9.70426 16.7633 11.9384C16.7633 14.1726 14.8834 15.9837 12.5642 15.9837Z" fill="#FB638C"/>
<path d="M20.8674 5.48783C20.8674 6.29828 20.1853 6.95534 19.344 6.95534C18.5027 6.95534 17.8203 6.29828 17.8203 5.48783C17.8203 4.67708 18.5027 4.02002 19.344 4.02002C20.1853 4.02002 20.8674 4.67708 20.8674 5.48783Z" fill="#FB638C"/>
</g>
<defs>
<clipPath id="clip0">
<rect width="25.1309" height="23.8743" fill="white"/>
</clipPath>
</defs>
</svg>
