<svg width="38" height="38" viewBox="0 0 38 38" fill="none" xmlns="http://www.w3.org/2000/svg">
<path fill-rule="evenodd" clip-rule="evenodd" d="M8.13046 4.33734C7.80486 4.33664 7.49098 4.37349 7.19272 4.44356C6.78386 3.5424 6.24379 2.73391 5.62953 2.11965C4.58697 1.07709 2.94268 0.666016 0.666504 0.666016V4.33268C2.05699 4.33268 2.85715 4.53272 3.03681 4.71238C3.72975 5.40532 4.33317 6.8133 4.33317 7.99935L4.3516 8.25862L6.14802 20.8336C3.14216 20.9896 0.813533 23.3239 0.668756 26.2418L0.666504 28.166C0.844009 31.1799 3.16489 33.4983 6.06244 33.6631L6.47864 33.6637C7.23302 35.8011 9.2709 37.3327 11.6665 37.3327C14.0612 37.3327 16.0985 35.8022 16.8535 33.666H21.1461C21.9012 35.8022 23.9384 37.3327 26.3332 37.3327C29.3707 37.3327 31.8332 34.8703 31.8332 31.8327C31.8332 28.7951 29.3707 26.3327 26.3332 26.3327C23.9384 26.3327 21.9012 27.8632 21.1461 29.9993H16.8535C16.0985 27.8632 14.0612 26.3327 11.6665 26.3327C9.27177 26.3327 7.2345 27.8632 6.47946 29.9993H6.1665C5.23152 29.9432 4.39282 29.1054 4.32988 28.0562L4.33317 26.3327C4.38261 25.3818 5.21557 24.5488 6.25735 24.4971L9.87661 24.498L9.90284 24.4993H28.3807L28.6513 24.4135C30.0414 23.9724 31.1542 22.9257 31.681 21.5706L31.8742 21.1884L32.1075 20.7262L32.5017 19.9451C33.1509 18.6582 33.8001 17.3691 34.4328 16.1097C35.9824 13.0246 36.957 11.0641 37.1728 10.5826C38.2811 8.11018 36.0359 6.2072 33.7411 6.16668L8.13046 4.33734ZM27.7442 20.8329H10.0405C9.92279 20.8002 9.83308 20.7004 9.81552 20.5762L8.01905 8.0009L33.4714 9.82358C33.0261 10.7318 32.2165 12.354 31.1567 14.464L31.1301 14.5169C30.5251 15.7213 29.8768 17.0086 29.2284 18.2939C28.8669 19.0104 28.8611 19.0218 28.6139 19.5113L28.609 19.521L28.6017 19.5355L28.3641 20.0058L28.2747 20.2136C28.1789 20.4804 27.9888 20.6997 27.7442 20.8329ZM26.3332 33.666C27.3457 33.666 28.1665 32.8452 28.1665 31.8327C28.1665 30.8202 27.3457 29.9993 26.3332 29.9993C25.3206 29.9993 24.4998 30.8202 24.4998 31.8327C24.4998 32.8452 25.3206 33.666 26.3332 33.666ZM13.4998 31.8327C13.4998 32.8452 12.679 33.666 11.6665 33.666C10.654 33.666 9.83317 32.8452 9.83317 31.8327C9.83317 30.8202 10.654 29.9993 11.6665 29.9993C12.679 29.9993 13.4998 30.8202 13.4998 31.8327Z" fill="#FB638C"/>
</svg>
