<svg width="22" height="22" viewBox="0 0 22 22" fill="none" xmlns="http://www.w3.org/2000/svg">
<path d="M20.3757 16.6718C19.6123 15.9026 17.7632 14.7801 16.866 14.3277C15.6978 13.7393 15.6016 13.6912 14.6833 14.3734C14.0708 14.8287 13.6636 15.2354 12.9467 15.0825C12.2299 14.9296 10.6721 14.0676 9.30817 12.7081C7.94419 11.3485 7.03215 9.7457 6.87878 9.0313C6.72542 8.31691 7.13889 7.91453 7.58986 7.30061C8.22545 6.43526 8.17737 6.29104 7.63409 5.12282C7.21052 4.2142 6.05521 2.38255 5.28307 1.62297C4.45709 0.807138 4.45709 0.951363 3.92487 1.17251C3.49157 1.3548 3.07588 1.57639 2.68301 1.8345C1.91376 2.34553 1.48683 2.77003 1.18826 3.40799C0.889696 4.04594 0.755558 5.54155 2.29742 8.34239C3.83929 11.1432 4.92104 12.5754 7.16004 14.808C9.39904 17.0406 11.1207 18.241 13.6376 19.6525C16.7511 21.3962 17.9454 21.0563 18.5853 20.7582C19.2252 20.4601 19.6517 20.0371 20.1637 19.2679C20.4225 18.8757 20.6446 18.4605 20.8272 18.0276C21.0488 17.4973 21.1931 17.4973 20.3757 16.6718Z" stroke="#333333" stroke-width="1.7" stroke-miterlimit="10"/>
</svg>
