<svg width="12" height="11" viewBox="0 0 12 11" fill="none" xmlns="http://www.w3.org/2000/svg">
<path d="M1.14601 5.20535L3.67497 6.14835L4.66082 9.32024C4.70368 9.53456 4.96087 9.57743 5.13232 9.44884L6.54681 8.29152C6.6754 8.16293 6.88972 8.16293 7.06118 8.29152L9.59012 10.1347C9.76157 10.2632 10.0188 10.1775 10.0616 9.9632L11.9476 0.96187C11.9905 0.747553 11.7762 0.533237 11.5618 0.618964L1.14601 4.64813C0.88883 4.73386 0.88883 5.11963 1.14601 5.20535ZM4.53223 5.67685L9.50439 2.63355C9.59011 2.59068 9.67585 2.71927 9.59012 2.76214L5.51809 6.57699C5.3895 6.70558 5.26091 6.87703 5.26091 7.09135L5.13232 8.12007C5.13232 8.24866 4.918 8.29152 4.87514 8.12007L4.36077 6.23408C4.23218 6.01976 4.31792 5.76258 4.53223 5.67685Z" fill="white"/>
</svg>
