<svg width="45" height="61" viewBox="0 0 45 61" fill="none" xmlns="http://www.w3.org/2000/svg">
<path d="M42.3952 14.7363C40.0158 15.2714 37.7622 15.8618 35.6346 16.4926C30.5358 18.0033 26.1295 19.9106 22.3653 21.7361C19.9355 22.9157 19.0668 23.4369 15.8817 25.2901C8.52938 29.5315 4.12305 35.0344 4.12305 43.2692C4.12305 52.5741 11.1228 59.0514 22.2519 59.0514C33.3811 59.0514 40.3808 52.0252 40.3808 42.7203C40.3808 33.4154 32.7012 26.9784 42.3952 14.7363Z" stroke="#E4AAC7" stroke-width="3.5" stroke-linecap="round" stroke-linejoin="round"/>
<path d="M23.2578 21.3066C20.7789 17.9075 18.4486 16.4357 16.6231 15.4412C10.492 12.105 2.10742 10.7075 2.10742 10.7075C7.33207 16.2091 6.79072 22.0507 6.13607 26.8221C6.13607 26.8221 5.64885 30.9615 6.37653 34.1756" stroke="#E4AAC7" stroke-width="3.5" stroke-linecap="round" stroke-linejoin="round"/>
<path d="M21.9314 9.64638C17.8738 4.389 12.1771 2.65039 12.1771 2.65039C10.2509 5.26901 8.55255 9.14406 7.78711 11.988M36.8525 16.1401C34.9074 11.5386 32.3203 6.67904 32.3203 6.67904C32.3203 6.67904 24.3486 6.67904 15.2376 14.7363L36.8525 16.1401Z" stroke="#E4AAC7" stroke-width="3.5" stroke-linecap="round" stroke-linejoin="round"/>
</svg>
