<svg width="27" height="23" viewBox="0 0 27 23" fill="none" xmlns="http://www.w3.org/2000/svg">
<g clip-path="url(#clip0)">
<path d="M26.7953 2.8342C25.7988 3.2713 24.737 3.56103 23.6301 3.7017C24.7689 3.02177 25.638 1.95331 26.0467 0.665464C24.9849 1.2985 23.8126 1.74565 22.5633 1.99518C21.5551 0.921693 20.1182 0.256836 18.5507 0.256836C15.5094 0.256836 13.061 2.72535 13.061 5.75154C13.061 6.18696 13.0979 6.60564 13.1883 7.00422C8.62137 6.78148 4.58031 4.59264 1.86562 1.25831C1.39168 2.08059 1.11368 3.02177 1.11368 4.03497C1.11368 5.93743 2.09338 7.62386 3.55372 8.60021C2.67115 8.58346 1.80533 8.32723 1.07181 7.92363C1.07181 7.94038 1.07181 7.96215 1.07181 7.98392C1.07181 10.6534 2.97595 12.8707 5.47293 13.3815C5.02578 13.5037 4.53845 13.5624 4.03269 13.5624C3.681 13.5624 3.32596 13.5423 2.9927 13.4686C3.70444 15.644 5.72414 17.2434 8.12566 17.2953C6.25669 18.7573 3.88364 19.6382 1.31464 19.6382C0.864147 19.6382 0.432073 19.6181 0 19.5628C2.43334 21.132 5.31718 22.028 8.42711 22.028C18.5356 22.028 24.0621 13.6545 24.0621 6.3963C24.0621 6.15347 24.0538 5.91901 24.042 5.68622C25.1323 4.91251 26.0483 3.94621 26.7953 2.8342Z" fill="#FB638C"/>
</g>
<defs>
<clipPath id="clip0">
<rect width="26.7953" height="21.7711" fill="white" transform="translate(0 0.256836)"/>
</clipPath>
</defs>
</svg>
