<svg width="38" height="38" viewBox="0 0 38 38" fill="none" xmlns="http://www.w3.org/2000/svg">
<path fill-rule="evenodd" clip-rule="evenodd" d="M18.9998 4.33268C23.3881 4.33268 27.1517 6.31029 29.6459 9.83268H22.6665V13.4993H35.4998V0.666016H31.8332V6.66166C28.6705 2.83395 24.1409 0.666016 18.9998 0.666016C8.87462 0.666016 0.666504 8.87413 0.666504 18.9993H4.33317C4.33317 10.8992 10.8997 4.33268 18.9998 4.33268ZM18.9998 33.666C14.6115 33.666 10.848 31.6884 8.35379 28.166H15.3332V24.4993H2.49984V37.3327H6.1665V31.337C9.3292 35.1647 13.8587 37.3327 18.9998 37.3327C29.1251 37.3327 37.3332 29.1246 37.3332 18.9993H33.6665C33.6665 27.0995 27.1 33.666 18.9998 33.666Z" fill="#FB638C"/>
</svg>
