<svg width="64" height="64" viewBox="0 0 64 64" fill="none" xmlns="http://www.w3.org/2000/svg">
<path d="M26.7286 19.077C26.0754 15.8712 25.29 11.5607 25.29 9.29528C25.2841 8.38693 25.4587 7.48647 25.8036 6.64613C26.1485 5.80579 26.6569 5.04231 27.2992 4.4C27.9415 3.75769 28.705 3.24933 29.5453 2.90442C30.3857 2.55951 31.2861 2.38491 32.1945 2.39077C36.0081 2.39077 39.099 5.55517 39.099 9.29528C39.099 11.4993 38.3176 15.8338 37.6604 19.077M26.7286 45.5463C26.0727 48.7601 25.29 53.0479 25.29 55.3281C25.2841 56.2364 25.4587 57.1369 25.8036 57.9772C26.1485 58.8175 26.6569 59.581 27.2992 60.2233C27.9415 60.8657 28.705 61.374 29.5453 61.7189C30.3857 62.0638 31.2861 62.2384 32.1945 62.2326C36.0081 62.2326 39.099 59.0682 39.099 55.3281C39.099 53.1187 38.3176 48.7922 37.6604 45.5463M45.4291 26.8458C48.643 26.1899 52.9307 25.4072 55.2109 25.4072C56.1192 25.4013 57.0197 25.5759 57.86 25.9208C58.7004 26.2657 59.4638 26.7741 60.1062 27.4164C60.7485 28.0587 61.2568 28.8222 61.6017 29.6625C61.9466 30.5029 62.1212 31.4033 62.1154 32.3117C62.1154 36.1252 58.951 39.2162 55.2109 39.2162C53.0069 39.2162 48.6723 38.4348 45.4291 37.7776M18.9598 26.8444C15.754 26.1912 11.4462 25.4072 9.1781 25.4072C8.26975 25.4013 7.36928 25.5759 6.52894 25.9208C5.6886 26.2657 4.92513 26.7741 4.28281 27.4164C3.6405 28.0587 3.13214 28.8222 2.78723 29.6625C2.44232 30.5029 2.26772 31.4033 2.27358 32.3117C2.27358 36.1252 5.43798 39.2162 9.1781 39.2162C11.3821 39.2162 15.7166 38.4348 18.9598 37.7776" stroke="#E4AAC7" stroke-width="3.5" stroke-miterlimit="10" stroke-linecap="round"/>
<path d="M37.6603 19.0769C39.4702 16.3413 41.9748 12.7655 43.587 11.1545C44.2251 10.508 44.9852 9.99455 45.8233 9.64414C46.6614 9.29373 47.5608 9.11328 48.4692 9.11328C49.3776 9.11328 50.277 9.29373 51.1151 9.64414C51.9532 9.99455 52.7133 10.508 53.3514 11.1545C56.0483 13.8514 55.9962 18.2741 53.3514 20.9189C51.7939 22.4777 48.186 25.0157 45.429 26.8457M18.9597 37.7775C16.2241 39.5874 12.6483 42.092 11.0374 43.7042C10.3908 44.3423 9.87737 45.1024 9.52695 45.9405C9.17654 46.7786 8.99609 47.678 8.99609 48.5864C8.99609 49.4948 9.17654 50.3942 9.52695 51.2323C9.87737 52.0704 10.3908 52.8305 11.0374 53.4686C13.7342 56.1655 18.1569 56.1134 20.8017 53.4686C22.3606 51.9111 24.8985 48.3032 26.7285 45.5462M45.429 37.7775C48.1647 39.5874 51.7405 42.092 53.3514 43.7042C53.998 44.3423 54.5114 45.1024 54.8618 45.9405C55.2122 46.7786 55.3927 47.678 55.3927 48.5864C55.3927 49.4948 55.2122 50.3942 54.8618 51.2323C54.5114 52.0704 53.998 52.8305 53.3514 53.4686C50.6545 56.1655 46.2318 56.1134 43.587 53.4686C42.0255 51.9071 39.4916 48.3059 37.6603 45.5462M26.7285 19.0769C24.9212 16.348 22.4033 12.7561 20.8017 11.1545C20.1637 10.508 19.4035 9.99455 18.5654 9.64414C17.7273 9.29373 16.8279 9.11328 15.9195 9.11328C15.0111 9.11328 14.1118 9.29373 13.2737 9.64414C12.4356 9.99455 11.6754 10.508 11.0374 11.1545C8.34047 13.8514 8.39256 18.2741 11.0374 20.9189C12.5882 22.4697 16.2067 25.017 18.9597 26.8457" stroke="#E4AAC7" stroke-width="3.5" stroke-miterlimit="10" stroke-linecap="round"/>
<path d="M32.5 40C36.6421 40 40 36.6421 40 32.5C40 28.3579 36.6421 25 32.5 25C28.3579 25 25 28.3579 25 32.5C25 36.6421 28.3579 40 32.5 40Z" stroke="#E4AAC7" stroke-width="3.5" stroke-miterlimit="10" stroke-linecap="round"/>
</svg>
