<svg width="57" height="61" viewBox="0 0 57 61" fill="none" xmlns="http://www.w3.org/2000/svg">
<path d="M28.2902 24.6619L28.276 24.6619C21.7071 24.7007 16.5974 24.1707 12.6087 23.3185C10.2926 22.961 7.74471 22.2984 5.34066 21.0977L28.2902 24.6619ZM28.2902 24.6619L28.3044 24.6615M28.2902 24.6619L28.3044 24.6615M28.3044 24.6615C29.1789 24.6421 36.022 24.5303 42.6693 25.5361C46.0089 26.0414 49.161 26.8097 51.4618 27.9347C53.7874 29.0718 54.7725 30.3207 54.8599 31.6174V35.2079V41.8531M28.3044 24.6615L54.8599 41.8531M54.8599 41.8531C53.7736 40.9504 52.603 40.2133 51.4008 39.613L51.4004 39.6128C49.0057 38.4178 46.4694 37.7577 44.1612 37.4C40.1672 36.5433 35.0474 36.0114 28.4628 36.0501L28.4485 36.0502L28.4343 36.0505C27.5596 36.0699 20.7166 36.182 14.0696 35.1766C10.7301 34.6715 7.57818 33.9033 5.27773 32.7786C2.95241 31.6417 1.96782 30.393 1.88086 29.0966V25.5046V18.8584C2.96783 19.7614 4.13889 20.4978 5.34028 21.0975L54.8599 41.8531Z" stroke="#E4AAC7" stroke-width="3.5"/>
<path d="M45.0505 48.7964L40.323 45.8413C44.0599 45.3888 47.0382 44.6029 49.4136 43.6498C50.9848 44.4282 52.3992 45.4606 53.5231 46.8238C53.7975 47.1574 54.0442 47.453 54.2693 47.723C54.4831 47.9793 54.6776 48.2124 54.8581 48.4327V51.0583C54.7597 52.6424 53.8187 53.9692 52.0441 55.1241C50.2327 56.303 47.7596 57.1517 45.1542 57.7433C42.9658 58.2402 40.7743 58.5361 38.9682 58.7116L45.4307 51.4431L46.8075 49.8946L45.0505 48.7964Z" stroke="#E4AAC7" stroke-width="3.5"/>
<path d="M22.7821 0.79401L21.889 0L17.7682 2.00135M22.7821 0.79401C22.4148 1.41241 21.9303 1.74951 21.9244 1.74965L21.9137 1.74983L21.907 1.74992L21.8959 1.75006L21.8554 1.75064C21.8191 1.7512 21.7636 1.75219 21.6903 1.75387C21.5434 1.75723 21.3245 1.76336 21.0438 1.77447C20.8248 1.78313 20.5684 1.7948 20.2794 1.81052C19.8271 1.83512 19.295 1.86963 18.7014 1.918C18.4043 1.94221 18.0925 1.96984 17.7682 2.00135M22.7821 0.79401L23.1969 1.16272L15.2988 10.0469L21.8141 -2.54972L23.1264 -1.23744C23.3011 -0.394875 23.0802 0.292188 22.7821 0.79401ZM17.7682 2.00135L11.3065 9.26996L9.9299 10.8184L11.6868 11.9166L16.4142 14.8717M17.7682 2.00135C15.9623 2.17687 13.7713 2.47283 11.5833 2.96971C8.97799 3.56134 6.50484 4.41012 4.6934 5.58913C2.91873 6.7442 1.97751 8.07118 1.87891 9.65577V12.2497C2.15988 12.6092 2.50015 13.022 2.9205 13.5319C3.01436 13.6458 3.11222 13.7645 3.2143 13.8885L16.4142 14.8717M16.4142 14.8717C12.6777 15.3241 9.69938 16.1096 7.32383 17.0624C5.75261 16.2841 4.3377 15.2524 3.21473 13.8891L16.4142 14.8717ZM13.7937 9.1061L13.542 8.94874L12.6144 10.4327L13.7937 9.1061Z" stroke="#E4AAC7" stroke-width="3.5"/>
</svg>
