<svg width="26" height="23" viewBox="0 0 26 23" fill="none" xmlns="http://www.w3.org/2000/svg">
<g clip-path="url(#clip0)">
<path d="M24.1837 0.341825L0.54895 9.55202C-0.216582 9.85037 -0.170205 10.9489 0.617818 11.1816L6.62365 12.9551L8.86503 20.0672C9.09916 20.8101 10.0406 21.0353 10.5856 20.4789L13.6907 17.3083L19.7833 21.7804C20.5289 22.3277 21.5908 21.9211 21.7801 21.0158L25.8153 1.7236C26.0129 0.778607 25.0832 -0.00871783 24.1837 0.341825ZM21.2205 4.62325L10.2423 14.3313C10.1329 14.4281 10.0632 14.562 10.0469 14.7072L9.62428 18.4645C9.61047 18.587 9.439 18.6032 9.4024 18.4855L7.66341 12.882C7.58376 12.6255 7.68761 12.3475 7.91585 12.206L20.8799 4.16553C21.1781 3.98049 21.4833 4.3909 21.2205 4.62325Z" fill="#FB638C"/>
</g>
<defs>
<clipPath id="clip0">
<rect width="25.8421" height="21.7711" fill="white" transform="translate(0 0.256836)"/>
</clipPath>
</defs>
</svg>
