<svg width="44" height="44" viewBox="0 0 44 44" fill="none" xmlns="http://www.w3.org/2000/svg">
<path fill-rule="evenodd" clip-rule="evenodd" d="M40.3338 21.9982C40.3338 18.9137 38.2614 16.4983 34.8338 16.4983H29.1999C29.2163 16.4532 29.2333 16.407 29.2509 16.3594C29.3018 16.2219 29.4449 15.8447 29.5841 15.4778L29.5847 15.4761L29.585 15.4754C29.7084 15.1501 29.8286 14.8334 29.8784 14.6996C30.227 13.7639 30.4814 13.0101 30.6872 12.2635C30.9983 11.1351 31.1671 10.1185 31.1671 9.16492C31.1671 6.46624 29.5022 4.79007 27.039 4.07281C25.928 3.7493 24.9609 3.66475 23.8338 3.66492H22.9547L22.4043 4.35037C21.7825 5.12468 20.5613 6.52016 19.1534 8.12902L19.1533 8.12909C16.5559 11.0972 13.323 14.7914 12.046 16.6513C11.7147 16.5528 11.3637 16.5 11.0003 16.5H7.33366C5.30861 16.5 3.66699 18.1416 3.66699 20.1666V36.6666C3.66699 38.6917 5.30861 40.3333 7.33366 40.3333H11.0003C12.2601 40.3333 13.3715 39.698 14.0316 38.7303C14.5878 39.09 15.2083 39.3902 15.8829 39.6316C17.4271 40.1841 18.9587 40.3537 20.2302 40.3305L33.0005 40.3316C38.0516 40.3316 40.3338 32.8948 40.3338 21.9982ZM17.1179 36.1793C15.4956 35.5988 14.667 34.6524 14.667 32.9983V20.1666V20.165C14.667 19.7246 14.7485 19.3347 14.9268 18.9183C15.2472 18.1703 18.1539 14.8541 20.9089 11.7109C22.3308 10.0887 23.7123 8.51255 24.6769 7.35939C25.1379 7.39396 25.5723 7.4648 26.0137 7.59333C27.0643 7.89924 27.5003 8.3382 27.5003 9.16498C27.5003 9.74538 27.3829 10.4526 27.1523 11.2891C26.9799 11.9142 26.7567 12.5757 26.4423 13.4195C26.3977 13.5393 26.2864 13.8327 26.168 14.1448L26.1678 14.1454L26.1677 14.1457C26.0235 14.5257 25.8689 14.933 25.8117 15.0877C25.5733 15.7323 25.4163 16.2069 25.3089 16.6382C24.8521 18.4716 25.3103 20.165 27.5003 20.165H34.8337C36.1009 20.165 36.667 20.8248 36.667 21.9983C36.667 30.7813 34.8614 36.665 33.0003 36.665H20.167L20.0993 36.6661C19.2968 36.6805 18.1698 36.5556 17.1179 36.1793ZM7.33352 36.6665V20.1665H11.0002V36.6665H7.33352Z" fill="#FB638C"/>
</svg>
