<svg width="12" height="14" viewBox="0 0 12 14" fill="none" xmlns="http://www.w3.org/2000/svg">
<path d="M8.93966 0.800253C6.84332 0.399916 4.66636 0.399916 2.57003 0.800253C1.6428 1.00042 0.473691 2.12136 0.27212 3.0021C-0.0907068 4.72355 -0.0907068 6.48503 0.27212 8.20648C0.514005 9.08722 1.68311 10.2082 2.57003 10.4083C2.61034 10.4083 2.65065 10.4484 2.65065 10.4884V13.0105C2.65065 13.1306 2.81191 13.2107 2.89254 13.0906L4.10196 11.8495C4.10196 11.8495 5.0695 10.8487 5.23076 10.6886C5.23076 10.6886 5.27107 10.6485 5.31139 10.6485C6.52081 10.6886 7.77055 10.5685 8.97997 10.3683C9.9072 10.1681 11.0763 9.04719 11.2779 8.16645C11.6407 6.445 11.6407 4.68352 11.2779 2.96207C11.036 2.12136 9.86689 1.00042 8.93966 0.800253ZM8.97997 8.32658C8.7784 8.72692 8.53652 9.04719 8.13338 9.24736C8.01243 9.28739 7.89149 9.32742 7.77055 9.36746C7.60929 9.32742 7.48835 9.28739 7.36741 9.24736C6.07736 8.72692 4.86793 8.00631 3.90039 6.96544C3.37631 6.36493 2.93285 5.68436 2.57003 4.96375C2.40877 4.60345 2.24751 4.28318 2.12657 3.92288C2.00563 3.60261 2.2072 3.28234 2.40877 3.04214C2.61034 2.80194 2.85222 2.6418 3.13442 2.5217C3.33599 2.4016 3.53757 2.48167 3.69882 2.6418C4.02134 3.04214 4.34385 3.44247 4.58573 3.88284C4.74699 4.16308 4.70667 4.48335 4.42447 4.68352C4.34385 4.72355 4.30353 4.76359 4.2229 4.84365C4.18259 4.88369 4.10196 4.92372 4.06165 5.00379C3.98102 5.12389 3.98102 5.24399 4.02133 5.36409C4.34385 6.28487 4.94856 7.00547 5.87578 7.40581C6.03704 7.48587 6.15798 7.52591 6.35955 7.52591C6.64175 7.48588 6.7627 7.16561 6.96427 7.00547C7.16584 6.84534 7.40772 6.84534 7.64961 6.96544C7.85118 7.08554 8.05275 7.24567 8.29463 7.40581C8.4962 7.56594 8.69777 7.68604 8.89934 7.84618C9.02029 7.92625 9.0606 8.12641 8.97997 8.32658ZM7.28678 5.32406C7.20615 5.32406 7.24646 5.32406 7.28678 5.32406C7.12552 5.32406 7.08521 5.24399 7.04489 5.12389C7.04489 5.04382 7.04489 4.92372 7.00458 4.84365C6.96427 4.68352 6.88364 4.52338 6.72238 4.40328C6.64175 4.36325 6.56112 4.32322 6.48049 4.28318C6.35955 4.24315 6.27893 4.24315 6.15798 4.24315C6.03704 4.20311 5.99673 4.12305 5.99673 4.00295C5.99673 3.92288 6.11767 3.84281 6.1983 3.84281C6.84332 3.88285 7.32709 4.24315 7.40772 5.00379C7.40772 5.04382 7.40772 5.12389 7.40772 5.16392C7.40772 5.24399 7.36741 5.32406 7.28678 5.32406ZM6.88364 3.56258C6.68207 3.48251 6.4805 3.40244 6.23861 3.36241C6.15798 3.36241 6.03704 3.32237 5.95641 3.32237C5.83547 3.32237 5.75484 3.24231 5.79516 3.12221C5.79516 3.0021 5.87578 2.92204 5.99673 2.96207C6.39987 3.0021 6.7627 3.08217 7.12552 3.24231C7.85118 3.60261 8.25432 4.20311 8.37526 5.00379C8.37526 5.04382 8.37526 5.08386 8.37526 5.12389C8.37526 5.20396 8.37526 5.28402 8.37526 5.40412C8.37526 5.44416 8.37526 5.48419 8.37526 5.52423C8.33495 5.68436 8.05275 5.72439 8.01243 5.52423C8.01243 5.48419 7.97212 5.40412 7.97212 5.36409C7.97212 5.00379 7.89149 4.64348 7.73024 4.32322C7.48835 3.96291 7.20615 3.72271 6.88364 3.56258ZM9.0606 5.9646C8.93966 5.9646 8.85903 5.8445 8.85903 5.72439C8.85903 5.48419 8.81872 5.24399 8.7784 5.00379C8.61715 3.72271 7.56898 2.68183 6.31924 2.48167C6.11767 2.44163 5.9161 2.44163 5.75484 2.4016C5.6339 2.4016 5.47264 2.4016 5.43233 2.24146C5.39201 2.12136 5.51296 2.00126 5.6339 2.00126C5.67421 2.00126 5.71453 2.00126 5.71453 2.00126C7.36741 2.0413 5.79516 2.00126 5.71453 2.00126C7.40772 2.0413 8.81872 3.16224 9.10091 4.84365C9.14123 5.12389 9.18154 5.40413 9.18154 5.72439C9.26217 5.8445 9.18154 5.9646 9.0606 5.9646Z" fill="white"/>
</svg>
