<svg width="27" height="21" viewBox="0 0 27 21" fill="none" xmlns="http://www.w3.org/2000/svg">
<path d="M26.2179 5.32342C26.2179 2.96747 24.5118 1.07223 22.4036 1.07223C19.548 0.936632 16.6358 0.884277 13.6596 0.884277H12.7318C9.76283 0.884277 6.84542 0.936632 3.98985 1.07275C1.88684 1.07275 0.180719 2.97846 0.180719 5.33442C0.0518579 7.19772 -0.00277922 9.06154 0.000313446 10.9254C-0.004841 12.7892 0.0535761 14.6548 0.175565 16.5221C0.175565 18.878 1.88169 20.789 3.9847 20.789C6.98459 20.9303 10.0618 20.9932 13.1905 20.9879C16.3244 20.9984 19.3931 20.9321 22.3964 20.789C24.5046 20.789 26.2107 18.878 26.2107 16.5221C26.3344 14.653 26.3911 12.7892 26.3859 10.9201C26.3976 9.05631 26.3416 7.19074 26.2179 5.32342ZM10.67 16.0614V5.77367L18.144 10.9149L10.67 16.0614Z" fill="#FB638C"/>
</svg>
